# xmcd
#
# Track frame offsets: 
#        150
#        31857
#        61113
#        91784
#        116944
#        146083
#        173323
#        209942
#        229912
#        249041
#
# Disc length: 3556 seconds
#
# Revision: 0
# Processed by: cddbd v1.5.2PL0 Copyright (c) Steve Scherf et al.
# Submitted via: ExactAudioCopy v0.99pb5
#
DISCID=810de20a
DTITLE=Peter Karp - Live At The American Roadhouse
DYEAR=2000
DGENRE=Blues
TTITLE0=Tangled Up In Blue (Dylan)
TTITLE1=Moments
TTITLE2=Loose Ends
TTITLE3=Feelin' All Right (Mason)
TTITLE4=Mexican Home (Prine)
TTITLE5=Y'all Be Looking For Love
TTITLE6=Corrian Corrian (Taj Mahal)
TTITLE7=Highway 61 (Dylan)
TTITLE8=It Goes to Show
TTITLE9=I'll Be Alright
EXTD=
EXTT0=
EXTT1=
EXTT2=
EXTT3=
EXTT4=
EXTT5=
EXTT6=
EXTT7=
EXTT8=
EXTT9=
PLAYORDER=
